<svg width="24" height="24" viewBox="0 0 24 24" fill="none" xmlns="http://www.w3.org/2000/svg">
<g clip-path="url(#clip0)">
<path d="M4.558 7L9.259 2.298C9.458 2.1 9.719 2 9.98 2C10.593 2 11 2.505 11 3.029C11 3.279 10.908 3.533 10.701 3.74L7.441 7H4.558ZM16.559 7H19.442L14.741 2.298C14.542 2.1 14.281 2 14.02 2C13.407 2 13 2.505 13 3.029C13 3.279 13.092 3.533 13.299 3.74L16.559 7ZM0 9V11H0.643C1.177 11 1.664 11.304 1.899 11.784L6 22H18L22.102 11.786C22.335 11.305 22.824 11 23.358 11H24V9H0Z" fill="black"/>
</g>
<defs>
<clipPath id="clip0">
<path d="M0 0H24V24H0V0Z" fill="white"/>
</clipPath>
</defs>
</svg>
